<?xml version="1.0" encoding="UTF-8"?>
<svg xmlns="http://www.w3.org/2000/svg" viewBox="0 0 18 14" class="arrow-icon" focusable="false"> 
    <g id="Layer_2" data-name="Layer 2"> 
        <g id="Layer_1-2" data-name="Layer 1"> 
            <path d="M17.86,6.67,11.43.15a.52.52,0,0,0-.71,0,.47.47,0,0,0,0,.68l5.64,5.71H.5A.48.48,0,0,0,0,7a.49.49,0,0,0,.5.48H16.34L10.7,13.19a.47.47,0,0,0,0,.68.52.52,0,0,0,.71,0l6.43-6.52A.45.45,0,0,0,17.86,6.67Z" fill="">
            </path> 
        </g> 
    </g> 
</svg>
